<svg xmlns="http://www.w3.org/2000/svg" viewBox="0 0 445 445" fill="currentColor" xmlns:v="https://vecta.io/nano"><path d="M440.498 173.103c5.858-5.857 5.858-15.355 0-21.213l-22.511-22.511c-5.091-5.091-13.084-5.846-19.038-1.8l-47.332 32.17 31.975-47.652a15 15 0 0 0-1.85-18.964l-48.83-48.83c-4.508-4.508-11.372-5.675-17.114-2.908l-8.443 4.065 4.043-8.97a15 15 0 0 0-3.068-16.771L293.002 4.393c-5.857-5.857-15.355-5.857-21.213 0l-119.06 119.059 168.71 168.71 119.059-119.059zM130.56 145.622l-34.466 34.466a15 15 0 0 0-4.394 10.606c0 3.978 1.58 7.794 4.394 10.606l32.694 32.694a29.08 29.08 0 0 1 8.382 23.849c-.971 8.851-5.843 16.677-13.366 21.473-96.068 61.238-105.023 70.194-107.965 73.137-21.119 21.118-21.119 55.48 0 76.6 21.14 21.14 55.504 21.098 76.6 0 2.944-2.943 11.902-11.902 73.136-107.965 4.784-7.505 12.607-12.366 21.462-13.339 8.883-.969 17.575 2.071 23.859 8.354l32.694 32.694c5.857 5.857 15.356 5.857 21.213 0l34.467-34.467-168.71-168.708zM70.05 404.825c-8.28 8.28-21.704 8.28-29.983 0s-8.28-21.704 0-29.983 21.704-8.28 29.983 0 8.28 21.703 0 29.983z"/></svg>