<svg xmlns="http://www.w3.org/2000/svg" fill="currentColor" viewBox="2 2 46 46" xmlns:v="https://vecta.io/nano"><path d="M25 2C12.318 2 2 12.318 2 25c0 3.96 1.023 7.854 2.963 11.29L2.037 46.73A1 1 0 0 0 3 48a1.03 1.03 0 0 0 .24-.029l10.896-2.699C17.463 47.058 21.21 48 25 48c12.682 0 23-10.318 23-23S37.682 2 25 2zm11.57 31.116c-.492 1.362-2.852 2.605-3.986 2.772-1.018.149-2.306.213-3.72-.231-.857-.27-1.957-.628-3.366-1.229-5.923-2.526-9.791-8.415-10.087-8.804S13 22.463 13 19.594s1.525-4.28 2.067-4.864 1.181-.73 1.575-.73a25.25 25.25 0 0 1 1.132.021c.363.018.85-.137 1.329 1.001l1.819 4.33c.148.292.246.633.05 1.022s-.294.632-.59.973-.62.76-.886 1.022c-.296.291-.603.606-.259 1.19s1.529 2.493 3.285 4.039c2.255 1.986 4.158 2.602 4.748 2.894s.935.243 1.279-.146 1.476-1.703 1.869-2.286.787-.487 1.329-.292 3.445 1.604 4.035 1.896.984.438 1.132.681.148 1.41-.344 2.771z"/></svg>